{
  "asset": {
    "version": "2.0",
    "generator": "THREE.GLTFExporter r176"
  },
  "scenes": [
    {
      "name": "Scene",
      "nodes": [
        0,
        1,
        4,
        7,
        10,
        13,
        16,
        19
      ]
    }
  ],
  "scene": 0,
  "nodes": [
    {
      "matrix": [
        1,
        0,
        0,
        0,
        0,
        1,
        0,
        0,
        0,
        0,
        1,
        0,
        0,
        9.668480588225462,
        0,
        1
      ],
      "name": "AmbientLight"
    },
    {
      "matrix": [
        25.06,
        0,
        0,
        0,
        0,
        0.2,
        0,
        0,
        0,
        0,
        5,
        0,
        0,
        -0.07624400641992923,
        0,
        1
      ],
      "name": "Base",
      "mesh": 0
    },
    {
      "matrix": [
        0.12,
        0,
        0,
        0,
        0,
        2.220446049250313e-16,
        1,
        0,
        0,
        -0.52,
        1.1546319456101628e-16,
        0,
        0.49402089756788925,
        -0.01887048163750963,
        0,
        1
      ],
      "name": "Cylinder",
      "mesh": 2
    },
    {
      "matrix": [
        0.12,
        0,
        0,
        0,
        0,
        2.220446049250313e-16,
        1,
        0,
        0,
        -0.52,
        1.1546319456101628e-16,
        0,
        -0.5011164392471343,
        -0.01887048163750963,
        0,
        1
      ],
      "name": "Cylinder",
      "mesh": 2
    },
    {
      "matrix": [
        1,
        0,
        0,
        0,
        0,
        0.14,
        0,
        0,
        0,
        0,
        0.2,
        0,
        -10.282182168882295,
        -0.00045904145300990074,
        1.65,
        1
      ],
      "name": "Belt",
      "mesh": 1,
      "children": [
        2,
        3
      ]
    },
    {
      "matrix": [
        0.12,
        0,
        0,
        0,
        0,
        2.220446049250313e-16,
        1,
        0,
        0,
        -0.52,
        1.1546319456101628e-16,
        0,
        0.49402089756788925,
        -0.01887048163750963,
        0,
        1
      ],
      "name": "Cylinder",
      "mesh": 2
    },
    {
      "matrix": [
        0.12,
        0,
        0,
        0,
        0,
        2.220446049250313e-16,
        1,
        0,
        0,
        -0.52,
        1.1546319456101628e-16,
        0,
        -0.5011164392471343,
        -0.01887048163750963,
        0,
        1
      ],
      "name": "Cylinder",
      "mesh": 2
    },
    {
      "matrix": [
        1,
        0,
        0,
        0,
        0,
        0.14,
        0,
        0,
        0,
        0,
        0.2,
        0,
        -10.282182168882295,
        -0.00045904145300990074,
        1,
        1
      ],
      "name": "Belt",
      "mesh": 1,
      "children": [
        5,
        6
      ]
    },
    {
      "matrix": [
        0.12,
        0,
        0,
        0,
        0,
        2.220446049250313e-16,
        1,
        0,
        0,
        -0.52,
        1.1546319456101628e-16,
        0,
        0.49402089756788925,
        -0.01887048163750963,
        0,
        1
      ],
      "name": "Cylinder",
      "mesh": 2
    },
    {
      "matrix": [
        0.12,
        0,
        0,
        0,
        0,
        2.220446049250313e-16,
        1,
        0,
        0,
        -0.52,
        1.1546319456101628e-16,
        0,
        -0.5011164392471343,
        -0.01887048163750963,
        0,
        1
      ],
      "name": "Cylinder",
      "mesh": 2
    },
    {
      "matrix": [
        1,
        0,
        0,
        0,
        0,
        0.14,
        0,
        0,
        0,
        0,
        0.2,
        0,
        -10.282182168882295,
        -0.00045904145300990074,
        -1.65,
        1
      ],
      "name": "Belt",
      "mesh": 1,
      "children": [
        8,
        9
      ]
    },
    {
      "matrix": [
        0.12,
        0,
        0,
        0,
        0,
        2.220446049250313e-16,
        1,
        0,
        0,
        -0.52,
        1.1546319456101628e-16,
        0,
        0.49402089756788925,
        -0.01887048163750963,
        0,
        1
      ],
      "name": "Cylinder",
      "mesh": 2
    },
    {
      "matrix": [
        0.12,
        0,
        0,
        0,
        0,
        2.220446049250313e-16,
        1,
        0,
        0,
        -0.52,
        1.1546319456101628e-16,
        0,
        -0.5011164392471343,
        -0.01887048163750963,
        0,
        1
      ],
      "name": "Cylinder",
      "mesh": 2
    },
    {
      "matrix": [
        1,
        0,
        0,
        0,
        0,
        0.14,
        0,
        0,
        0,
        0,
        0.2,
        0,
        -10.282182168882295,
        -0.00045904145300990074,
        -1,
        1
      ],
      "name": "Belt",
      "mesh": 1,
      "children": [
        11,
        12
      ]
    },
    {
      "matrix": [
        0.12,
        0,
        0,
        0,
        0,
        2.220446049250313e-16,
        1,
        0,
        0,
        -0.52,
        1.1546319456101628e-16,
        0,
        0.49402089756788925,
        -0.01887048163750963,
        0,
        1
      ],
      "name": "Cylinder",
      "mesh": 2
    },
    {
      "matrix": [
        0.12,
        0,
        0,
        0,
        0,
        2.220446049250313e-16,
        1,
        0,
        0,
        -0.52,
        1.1546319456101628e-16,
        0,
        -0.5011164392471343,
        -0.01887048163750963,
        0,
        1
      ],
      "name": "Cylinder",
      "mesh": 2
    },
    {
      "matrix": [
        2.44,
        0,
        0,
        0,
        0,
        0.14,
        0,
        0,
        0,
        0,
        0.2,
        0,
        -9.4,
        -0.00045904145300990074,
        0.35,
        1
      ],
      "name": "Belt",
      "mesh": 1,
      "children": [
        14,
        15
      ]
    },
    {
      "matrix": [
        0.12,
        0,
        0,
        0,
        0,
        2.220446049250313e-16,
        1,
        0,
        0,
        -0.52,
        1.1546319456101628e-16,
        0,
        0.49402089756788925,
        -0.01887048163750963,
        0,
        1
      ],
      "name": "Cylinder",
      "mesh": 2
    },
    {
      "matrix": [
        0.12,
        0,
        0,
        0,
        0,
        2.220446049250313e-16,
        1,
        0,
        0,
        -0.52,
        1.1546319456101628e-16,
        0,
        -0.5011164392471343,
        -0.01887048163750963,
        0,
        1
      ],
      "name": "Cylinder",
      "mesh": 2
    },
    {
      "matrix": [
        2.44,
        0,
        0,
        0,
        0,
        0.14,
        0,
        0,
        0,
        0,
        0.2,
        0,
        -9.4,
        -0.00045904145300990074,
        -0.33,
        1
      ],
      "name": "Belt",
      "mesh": 1,
      "children": [
        17,
        18
      ]
    }
  ],
  "bufferViews": [
    {
      "buffer": 0,
      "byteOffset": 0,
      "byteLength": 288,
      "target": 34962,
      "byteStride": 12
    },
    {
      "buffer": 0,
      "byteOffset": 288,
      "byteLength": 288,
      "target": 34962,
      "byteStride": 12
    },
    {
      "buffer": 0,
      "byteOffset": 576,
      "byteLength": 192,
      "target": 34962,
      "byteStride": 8
    },
    {
      "buffer": 0,
      "byteOffset": 768,
      "byteLength": 72,
      "target": 34963
    },
    {
      "buffer": 0,
      "byteOffset": 840,
      "byteLength": 288,
      "target": 34962,
      "byteStride": 12
    },
    {
      "buffer": 0,
      "byteOffset": 1128,
      "byteLength": 288,
      "target": 34962,
      "byteStride": 12
    },
    {
      "buffer": 0,
      "byteOffset": 1416,
      "byteLength": 192,
      "target": 34962,
      "byteStride": 8
    },
    {
      "buffer": 0,
      "byteOffset": 1608,
      "byteLength": 72,
      "target": 34963
    },
    {
      "buffer": 0,
      "byteOffset": 1680,
      "byteLength": 2352,
      "target": 34962,
      "byteStride": 12
    },
    {
      "buffer": 0,
      "byteOffset": 4032,
      "byteLength": 2352,
      "target": 34962,
      "byteStride": 12
    },
    {
      "buffer": 0,
      "byteOffset": 6384,
      "byteLength": 1568,
      "target": 34962,
      "byteStride": 8
    },
    {
      "buffer": 0,
      "byteOffset": 7952,
      "byteLength": 768,
      "target": 34963
    }
  ],
  "buffers": [
    {
      "byteLength": 8720,
      "uri": "data:application/octet-stream;base64,"
    }
  ],
  "accessors": [
    {
      "bufferView": 0,
      "componentType": 5126,
      "count": 24,
      "max": [
        0.5,
        0.5,
        0.5
      ],
      "min": [
        -0.5,
        -0.5,
        -0.5
      ],
      "type": "VEC3"
    },
    {
      "bufferView": 1,
      "componentType": 5126,
      "count": 24,
      "max": [
        1,
        1,
        1
      ],
      "min": [
        -1,
        -1,
        -1
      ],
      "type": "VEC3"
    },
    {
      "bufferView": 2,
      "componentType": 5126,
      "count": 24,
      "max": [
        1,
        1
      ],
      "min": [
        0,
        0
      ],
      "type": "VEC2"
    },
    {
      "bufferView": 3,
      "componentType": 5123,
      "count": 36,
      "max": [
        23
      ],
      "min": [
        0
      ],
      "type": "SCALAR"
    },
    {
      "bufferView": 4,
      "componentType": 5126,
      "count": 24,
      "max": [
        0.5,
        0.5,
        0.5
      ],
      "min": [
        -0.5,
        -0.5,
        -0.5
      ],
      "type": "VEC3"
    },
    {
      "bufferView": 5,
      "componentType": 5126,
      "count": 24,
      "max": [
        1,
        1,
        1
      ],
      "min": [
        -1,
        -1,
        -1
      ],
      "type": "VEC3"
    },
    {
      "bufferView": 6,
      "componentType": 5126,
      "count": 24,
      "max": [
        1,
        1
      ],
      "min": [
        0,
        0
      ],
      "type": "VEC2"
    },
    {
      "bufferView": 7,
      "componentType": 5123,
      "count": 36,
      "max": [
        23
      ],
      "min": [
        0
      ],
      "type": "SCALAR"
    },
    {
      "bufferView": 8,
      "componentType": 5126,
      "count": 196,
      "max": [
        1,
        0.5,
        1
      ],
      "min": [
        -1,
        -0.5,
        -1
      ],
      "type": "VEC3"
    },
    {
      "bufferView": 9,
      "componentType": 5126,
      "count": 196,
      "max": [
        1,
        1,
        1
      ],
      "min": [
        -1,
        -1,
        -1
      ],
      "type": "VEC3"
    },
    {
      "bufferView": 10,
      "componentType": 5126,
      "count": 196,
      "max": [
        1,
        1
      ],
      "min": [
        0,
        0
      ],
      "type": "VEC2"
    },
    {
      "bufferView": 11,
      "componentType": 5123,
      "count": 384,
      "max": [
        195
      ],
      "min": [
        0
      ],
      "type": "SCALAR"
    }
  ],
  "materials": [
    {
      "pbrMetallicRoughness": {
        "baseColorFactor": [
          0.29613827078752575,
          0.29613827078752575,
          0.29613827078752575,
          1
        ],
        "metallicFactor": 1,
        "roughnessFactor": 0
      },
      "emissiveFactor": [
        0.23455058215026167,
        0.23455058215026167,
        0.23455058215026167
      ]
    },
    {
      "pbrMetallicRoughness": {
        "baseColorFactor": [
          0.0015176349176470587,
          0.1878207722902346,
          0.15592646369776456,
          1
        ],
        "metallicFactor": 0,
        "roughnessFactor": 1
      },
      "emissiveFactor": [
        0.0015176349176470587,
        0.19461783043107173,
        0.15292615198613213
      ]
    },
    {
      "pbrMetallicRoughness": {
        "baseColorFactor": [
          0.0015176349176470587,
          0.1878207722902346,
          0.15592646369776456,
          1
        ],
        "metallicFactor": 0,
        "roughnessFactor": 1
      },
      "emissiveFactor": [
        0.0015176349176470587,
        0.1878207722902346,
        0.15592646369776456
      ]
    }
  ],
  "meshes": [
    {
      "primitives": [
        {
          "mode": 4,
          "attributes": {
            "POSITION": 0,
            "NORMAL": 1,
            "TEXCOORD_0": 2
          },
          "indices": 3,
          "material": 0
        }
      ]
    },
    {
      "primitives": [
        {
          "mode": 4,
          "attributes": {
            "POSITION": 4,
            "NORMAL": 5,
            "TEXCOORD_0": 6
          },
          "indices": 7,
          "material": 1
        }
      ]
    },
    {
      "primitives": [
        {
          "mode": 4,
          "attributes": {
            "POSITION": 8,
            "NORMAL": 9,
            "TEXCOORD_0": 10
          },
          "indices": 11,
          "material": 2
        }
      ]
    }
  ]
}